#!OML:ASF F:\VICON\USERDATA\INSTALL\rory3\rory3.ASF
:FULLY-SPECIFIED
:DEGREES
2437
root 0.399655 15.8469 -0.0401512 -0.412424 -0.162397 -1.00763
lowerback 13.6474 0.0279669 -1.27177
upperback -2.22627 -0.199406 -0.170488
thorax -10.0931 -0.0270104 0.579786
lowerneck -9.00681 -6.49076 -12.9353
upperneck 30.0257 -10.0707 10.9446
head 12.688 -4.74645 5.04132
rclavicle 3.52843e-015 -4.77083e-015
rhumerus 1.80923 -3.30492 -37.8047
rradius 119.599
rwrist 22.4558
rhand -38.3599 20.5476
rfingers 7.12502
rthumb -11.3864 -9.1233
lclavicle 3.52843e-015 -4.77083e-015
lhumerus 8.67815 -3.40586 41.97
lradius 114.767
lwrist -2.99791
lhand -29.3536 12.4015
lfingers 7.12502
lthumb -2.6932 42.3642
rfemur -6.66025 10.8706 17.6981
rtibia 27.7313
rfoot -16.0212 -12.6774
rtoes -12.5277
lfemur -5.86737 -10.7221 -16.969
ltibia 25.6531
lfoot -14.7319 6.89128
ltoes -12.7729
2438
root 0.397639 15.8358 -0.0396651 -0.417375 -0.146707 -0.899579
lowerback 13.779 0.0222412 -1.35587
upperback -2.00609 -0.225113 -0.206384
thorax -9.92602 -0.0377252 0.594592
lowerneck -9.27803 -6.38613 -12.6235
upperneck 30.4662 -9.93469 10.7644
head 12.8767 -4.6614 4.94712
rclavicle 9.81499e-016 2.38542e-015
rhumerus -1.45603 -3.77579 -37.8379
rradius 121.546
rwrist 23.3136
rhand -39.3352 21.5726
rfingers 7.12502
rthumb -12.3269 -8.04401
lclavicle 9.81499e-016 2.38542e-015
lhumerus 5.56909 -3.00876 41.8382
lradius 116.592
lwrist -3.42041
lhand -30.2939 11.313
lfingers 7.12502
lthumb -3.60131 41.2623
rfemur -6.87824 10.8146 17.5908
rtibia 28.1721
rfoot -16.1866 -12.6804
rtoes -12.6819
lfemur -6.03228 -10.6346 -17.063
ltibia 25.9741
lfoot -14.8326 6.78539
ltoes -12.8969
2439
root 0.396754 15.824 -0.0388072 -0.378302 -0.189262 -0.788316
lowerback 13.8471 0.0413162 -1.46896
upperback -1.79049 -0.22063 -0.232716
thorax -9.72797 -0.0325068 0.629341
lowerneck -9.45146 -6.33885 -12.4652
upperneck 30.7967 -9.87904 10.6704
head 13.0287 -4.62313 4.89975
rclavicle 8.95773e-015 1.59028e-015
rhumerus -4.64759 -4.19445 -37.9431
rradius 123.302
rwrist 24.1207
rhand -39.8091 22.6052
rfingers 7.12502
rthumb -12.7838 -6.98338
lclavicle 8.95773e-015 1.59028e-015
lhumerus 2.37309 -2.62535 41.7595
lradius 118.326
lwrist -3.74832
lhand -31.1948 10.2705
lfingers 7.12502
lthumb -4.47127 40.2033
rfemur -7.1716 10.7639 17.4563
rtibia 28.6213
rfoot -16.3254 -12.6854
rtoes -13.1789
lfemur -6.24988 -10.5638 -17.1625
ltibia 26.3262
lfoot -14.9896 6.68048
ltoes -12.5522
2440
root 0.398149 15.8119 -0.0383462 -0.413099 -0.312659 -0.714899
lowerback 14.0752 0.0645841 -1.56208
upperback -1.63603 -0.207126 -0.219857
thorax -9.69011 -0.0215674 0.693517
lowerneck -9.45794 -6.25632 -12.4726
upperneck 31.1251 -9.76533 10.6138
head 13.1491 -4.58037 4.90972
rclavicle -9.29318e-015 -1.98785e-015
rhumerus -7.85862 -4.403 -38.1596
rradius 124.911
rwrist 24.96
rhand -40.0126 23.7173
rfingers 7.12502
rthumb -12.9799 -5.85897
lclavicle -9.29318e-015 -1.98785e-015
lhumerus -1.11226 -2.3274 41.7698
lradius 119.996
lwrist -4.09575
lhand -32.1989 9.31519
lfingers 7.12502
lthumb -5.44079 39.2253
rfemur -7.39501 10.7416 17.357
rtibia 29.0468
rfoot -16.4888 -12.6057
rtoes -13.4355
lfemur -6.39053 -10.4804 -17.2617
ltibia 26.7289
lfoot -15.1691 6.67379
ltoes -12.8805
2441
root 0.400151 15.8002 -0.0394663 -0.465985 -0.411229 -0.755039
lowerback 14.4656 0.0426594 -1.52617
upperback -1.5763 -0.233215 -0.181518
thorax -9.84932 -0.0337899 0.721559
lowerneck -9.37734 -6.11769 -12.4434
upperneck 31.5222 -9.58333 10.5254
head 13.2659 -4.51085 4.91615
rclavicle -1.18277e-014 8.74653e-015
rhumerus -11.3166 -4.41831 -38.3246
rradius 126.574
rwrist 25.6028
rhand -40.5704 24.7885
rfingers 7.12502
rthumb -13.5176 -4.7528
lclavicle -1.18277e-014 8.74653e-015
lhumerus -4.7613 -2.18614 41.8288
lradius 121.518
lwrist -4.57708
lhand -33.2099 8.54873
lfingers 7.12502
lthumb -6.41682 38.4315
rfemur -7.59139 10.6764 17.3818
rtibia 29.4589
rfoot -16.6476 -12.4836
rtoes -13.5389
lfemur -6.54374 -10.3895 -17.233
ltibia 27.1527
lfoot -15.3417 6.64719
ltoes -13.1749
2442
root 0.402434 15.7897 -0.0416342 -0.479511 -0.451554 -0.831804
lowerback 14.7293 0.00179466 -1.41831
upperback -1.43504 -0.267454 -0.138909
thorax -9.84508 -0.0553632 0.715096
lowerneck -9.3806 -6.02795 -12.3749
upperneck 31.8059 -9.44536 10.3913
head 13.3553 -4.45799 4.88307
rclavicle -9.62863e-015 4.17448e-015
rhumerus -14.6943 -4.49157 -38.4708
rradius 128.176
rwrist 26.026
rhand -41.161 25.6484
rfingers 7.12502
rthumb -14.0867 -3.85418
lclavicle -9.62863e-015 4.17448e-015
lhumerus -8.21326 -2.05853 42.0417
lradius 122.783
lwrist -5.21117
lhand -34.4204 7.75185
lfingers 7.12502
lthumb -7.58531 37.5958
rfemur -7.82139 10.5961 17.4432
rtibia 29.8669
rfoot -16.8202 -12.3565
rtoes -13.5587
lfemur -6.7731 -10.3238 -17.1498
ltibia 27.5858
lfoot -15.5216 6.62063
ltoes -13.1668
2443
root 0.405428 15.7791 -0.0421795 -0.424562 -0.497739 -0.793639
lowerback 14.8716 -0.0159817 -1.41988
upperback -1.26422 -0.290808 -0.125078
thorax -9.73822 -0.0676283 0.736609
lowerneck -9.48859 -5.9781 -12.3552
upperneck 32.0526 -9.35039 10.2917
head 13.4646 -4.42239 4.86214
rclavicle -5.98839e-015 2.78299e-015
rhumerus -17.7438 -4.44927 -38.8421
rradius 129.415
rwrist 26.6144
rhand -41.7033 26.562
rfingers 7.12502
rthumb -14.6094 -2.90345
lclavicle -5.98839e-015 2.78299e-015
lhumerus -11.6583 -1.98214 42.4696
lradius 123.839
lwrist -6.02919
lhand -35.9407 6.88994
lfingers 7.12502
lthumb -9.05255 36.6757
rfemur -8.12851 10.5092 17.3643
rtibia 30.3069
rfoot -16.9349 -12.2861
rtoes -13.9273
lfemur -7.06372 -10.2217 -17.1846
ltibia 28.0166
lfoot -15.6907 6.59401
ltoes -13.1064
2444
root 0.406362 15.7668 -0.0441145 -0.358836 -0.634899 -0.754849
lowerback 15.093 -0.0134805 -1.47065
upperback -1.17639 -0.29898 -0.117035
thorax -9.76842 -0.0687544 0.776823
lowerneck -9.52096 -5.91036 -12.4063
upperneck 32.3107 -9.25727 10.2933
head 13.5736 -4.38794 4.89756
rclavicle -8.01351e-015 3.37934e-015
rhumerus -20.4327 -4.15118 -39.6505
rradius 130.294
rwrist 27.6502
rhand -42.086 27.3796
rfingers 7.12502
rthumb -14.978 -2.05879
lclavicle -8.01351e-015 3.37934e-015
lhumerus -15.1765 -1.94014 42.9289
lradius 124.757
lwrist -6.48473
lhand -36.8753 5.65379
lfingers 7.12502
lthumb -9.95437 35.3984
rfemur -8.46762 10.5463 17.2974
rtibia 30.7318
rfoot -17.0284 -12.2609
rtoes -14.1661
lfemur -7.35017 -10.101 -17.2184
ltibia 28.4503
lfoot -15.913 6.59188
ltoes -12.8837
2445
root 0.407498 15.7549 -0.0470843 -0.26429 -0.743083 -0.71473
lowerback 15.2755 -0.0133158 -1.48728
upperback -1.10175 -0.306246 -0.136317
thorax -9.7909 -0.0721069 0.767819
lowerneck -9.45366 -5.8738 -12.4163
upperneck 32.4373 -9.22091 10.2994
head 13.6096 -4.37549 4.91473
rclavicle -1.06847e-014 6.75868e-015
rhumerus -23.13 -3.76548 -40.5277
rradius 131.127
rwrist 28.7774
rhand -42.4735 28.1069
rfingers 7.12502
rthumb -15.3513 -1.30323
lclavicle -1.06847e-014 6.75868e-015
lhumerus -18.4005 -1.92953 43.3921
lradius 125.677
lwrist -6.49551
lhand -37.3984 4.26728
lfingers 7.12502
lthumb -10.4589 33.9871
rfemur -8.85021 10.5064 17.2103
rtibia 31.1555
rfoot -17.1539 -12.1456
rtoes -14.2044
lfemur -7.67973 -10.0353 -17.2502
ltibia 28.8813
lfoot -16.097 6.61979
ltoes -13.1298
2446
root 0.410929 15.7438 -0.0493615 -0.241792 -0.840491 -0.788018
lowerback 15.5347 -0.0132398 -1.34233
upperback -1.02495 -0.282583 -0.132971
thorax -9.85606 -0.068178 0.684691
lowerneck -9.30108 -5.83103 -12.3592
upperneck 32.4432 -9.17042 10.252
head 13.564 -4.3564 4.89636
rclavicle 6.63444e-015 -1.09332e-014
rhumerus -26.0002 -3.28366 -41.2432
rradius 131.965
rwrist 29.6961
rhand -43.2884 28.6509
rfingers 7.12502
rthumb -16.1361 -0.697338
lclavicle 6.63444e-015 -1.09332e-014
lhumerus -21.3758 -2.20893 43.8876
lradius 126.488
lwrist -6.51645
lhand -38.162 3.83123
lfingers 7.12502
lthumb -11.1955 33.5125
rfemur -9.14486 10.4032 17.2562
rtibia 31.5688
rfoot -17.2261 -12.0245
rtoes -14.5652
lfemur -7.92813 -9.96237 -17.1705
ltibia 29.3195
lfoot -16.2423 6.59854
ltoes -13.1629
